<svg width="1900" height="464" viewBox="0 0 1900 464" fill="none" xmlns="http://www.w3.org/2000/svg">
<g clip-path="url(#clip0_6783_18091)">
<path d="M25.859 52.1666H37.059C42.5962 52.1655 47.9869 50.3869 52.4375 47.0925C56.8881 43.7982 60.1637 39.1621 61.782 33.8666C62.7121 32.3564 64.0173 31.1127 65.5706 30.2565C67.1239 29.4002 68.8724 28.9607 70.646 28.9806H83.357C85.3779 28.9755 87.3554 29.5665 89.0421 30.6796C90.7289 31.7927 92.0499 33.3785 92.84 35.2386V34.6386C94.5743 39.7473 97.8643 44.1849 102.248 47.3291C106.633 50.4733 111.891 52.1663 117.286 52.1706H173.97C180.828 52.1706 187.406 49.4462 192.255 44.5967C197.105 39.7472 199.829 33.1698 199.829 26.3116C199.829 19.4534 197.105 12.876 192.255 8.02651C187.406 3.17701 180.828 0.452583 173.97 0.452583H117.179C111.784 0.453077 106.525 2.14364 102.141 5.28677C97.7562 8.42991 94.4666 12.8677 92.734 17.9766V17.3816C91.9252 19.2209 90.5971 20.7841 88.9125 21.8793C87.2279 22.9744 85.2602 23.5539 83.251 23.5466H70.641C68.885 23.5439 67.1588 23.0922 65.6265 22.2346C64.0942 21.377 62.8066 20.1419 61.886 18.6466C60.2439 13.3526 56.9443 8.72632 52.4736 5.44985C48.0029 2.17338 42.5977 0.420123 37.055 0.448583H25.855C18.9967 0.448583 12.4194 3.17301 7.5699 8.02251C2.72039 12.872 -0.00402832 19.4494 -0.00402832 26.3076C-0.00402832 33.1658 2.72039 39.7432 7.5699 44.5927C12.4194 49.4422 18.9967 52.1666 25.855 52.1666H25.859Z" fill="#1A50A3"/>
<path d="M173.97 83.0352H117.179C111.779 83.0425 106.516 84.7417 102.132 87.8941C97.7468 91.0464 94.46 95.4934 92.7329 100.61V99.9892C91.9423 101.85 90.6215 103.437 88.9352 104.552C87.2489 105.667 85.2717 106.262 83.2499 106.261H70.6409C68.8845 106.261 67.1574 105.81 65.6247 104.952C64.092 104.095 62.8048 102.858 61.8859 101.361C60.2672 96.0671 56.9909 91.4329 52.5398 88.1414C48.0886 84.8498 42.6979 83.0749 37.1619 83.0782H25.8619C19.0037 83.0782 12.4264 85.8026 7.57686 90.6521C2.72735 95.5016 0.00292969 102.079 0.00292969 108.937C0.00292969 115.795 2.72735 122.373 7.57686 127.222C12.4264 132.072 19.0037 134.796 25.8619 134.796H37.0619C42.6039 134.79 47.9974 133.004 52.4475 129.701C56.8976 126.398 60.1688 121.753 61.7789 116.45C62.709 114.939 64.0136 113.694 65.5662 112.836C67.1188 111.977 68.8668 111.535 70.6409 111.55H83.3569C85.3508 111.563 87.2981 112.154 88.9624 113.253C90.6267 114.351 91.9366 115.908 92.7329 117.736V117.136C94.4344 122.281 97.7103 126.76 102.097 129.941C106.484 133.122 111.76 134.843 117.179 134.861H173.97C180.828 134.861 187.406 132.137 192.255 127.287C197.105 122.438 199.829 115.86 199.829 109.002C199.829 102.144 197.105 95.5666 192.255 90.7171C187.406 85.8676 180.828 83.1432 173.97 83.1432V83.0352Z" fill="#1A50A3"/>
<path d="M173.97 165.6H117.179C111.781 165.605 106.521 167.301 102.137 170.45C97.7522 173.598 94.4637 178.04 92.733 183.153V182.532C91.9423 184.392 90.6216 185.979 88.9353 187.095C87.249 188.21 85.2717 188.804 83.25 188.804H70.641C68.8845 188.803 67.1575 188.353 65.6248 187.495C64.092 186.637 62.8048 185.401 61.886 183.904C60.2673 178.608 56.9916 173.972 52.5408 170.678C48.09 167.383 42.6993 165.605 37.162 165.604H25.862C19.1286 165.795 12.7353 168.605 8.04041 173.436C3.34555 178.266 0.719116 184.737 0.719116 191.473C0.719116 198.209 3.34555 204.68 8.04041 209.511C12.7353 214.341 19.1286 217.151 25.862 217.343H37.062C42.5943 217.344 47.9812 215.571 52.4313 212.285C56.8815 208.998 60.1603 204.371 61.786 199.083C62.7105 197.563 64.0127 196.31 65.5657 195.443C67.1187 194.576 68.8696 194.127 70.648 194.138H83.357C85.3787 194.137 87.356 194.731 89.0423 195.847C90.7286 196.962 92.0493 198.549 92.84 200.41V199.81C94.5746 204.918 97.8645 209.355 102.248 212.499C106.632 215.642 111.89 217.335 117.285 217.34H173.969C180.702 217.148 187.096 214.338 191.791 209.508C196.485 204.677 199.112 198.206 199.112 191.47C199.112 184.734 196.485 178.263 191.791 173.433C187.096 168.602 180.702 165.792 173.969 165.601L173.97 165.6Z" fill="#1A50A3"/>
<path d="M1440.73 217.34H1468.11V0H1440.71L1440.73 217.34ZM1588.43 55.14C1542.08 55.14 1523.83 81.577 1523.83 114.864V160.888C1523.83 194.175 1542.09 220.612 1588.43 220.612C1634.77 220.612 1653.05 194.175 1653.05 160.888V114.867C1652.97 81.58 1634.69 55.143 1588.34 55.143L1588.43 55.14ZM1625.63 161.873C1625.63 185.035 1613.23 196.787 1588.43 196.787C1563.62 196.787 1551.23 185.035 1551.23 161.873V113.9C1551.23 90.717 1563.62 78.965 1588.43 78.965C1613.23 78.965 1625.63 90.717 1625.63 113.9V161.873ZM1873.97 58.418L1847.53 190.26L1809 58.418H1775.74L1737.21 190.26L1710.79 58.418H1684.7L1718.56 217.34H1753.88L1792.41 82.479L1830.94 217.34H1866.17L1900.08 58.419L1873.97 58.418ZM1279 217.34H1307.06V122.7H1383.16V97.571H1307.06V25.131H1408.16V0H1279V217.34Z" fill="#1A50A3"/>
<path d="M246.174 217.34H382.914V173.949H295.152V130.579H376.068V87.1H295.152V43.412H382.914V0H246.174V217.34ZM699.991 55.14C682.691 55.14 662.144 63.959 651.034 71.131L646.154 58.418H609.354V275.18H656.341V216.034C669.65 218.979 683.232 220.514 696.863 220.615C734.063 220.615 750.379 199.401 750.379 161.876V113.9C750.379 75.047 732.379 55.139 700.074 55.139L699.991 55.14ZM703.291 161.873C703.291 172.298 698.71 179.812 686.316 179.812C676.215 179.581 666.168 178.268 656.347 175.895V108.338C663.197 102.473 675.613 95.944 686.316 95.944C698.71 95.944 703.291 102.794 703.291 113.904V161.873ZM568.427 58.418H522.227L494.514 101.809L466.682 58.418H420.423L469.658 137.386L419.074 217.34H466.382L494.514 173.392L522.578 217.446H569.886L519.303 137.386L568.427 58.418ZM1214.11 96.329V58.418H1180.48V0H1133.56V58.418H1111.96V96.329H1133.56V179.814C1133.56 209.184 1151.18 220.614 1181.53 220.614C1191.14 220.443 1200.69 219.003 1209.92 216.333V179.172C1203.58 181.14 1196.99 182.129 1190.35 182.105C1184.46 182.105 1180.55 179.815 1180.55 173.286V96.329H1214.11ZM867.114 55.143C814.262 55.143 798.914 84.513 798.914 118.784V155.984C798.914 195.158 818.501 220.61 870.048 220.61C887.953 220.451 905.748 217.799 922.922 212.732V175.255C907.167 179.658 890.9 181.961 874.543 182.105C853.008 182.105 845.816 177.205 845.816 158.922V154.362H931.335V121.075C931.414 86.482 919.985 55.143 867.114 55.143ZM887.014 119.105H845.897V112.255C845.897 101.166 851.12 92.026 867.432 92.026C883.744 92.026 887.019 101.167 887.019 112.255L887.014 119.105ZM1023.66 58.418H984.504V217.34H1031.49V120.411C1040.69 113.989 1056.34 106.561 1069.68 101.145V55.145C1056.84 57.757 1036.71 67.218 1026.87 73.745L1023.66 58.418Z" fill="#8D9192"/>
</g>
<path d="M556.267 422.22C559.194 422.22 561.899 421.621 564.382 420.424C566.865 419.226 568.905 417.585 570.502 415.501C572.098 413.373 573.007 410.956 573.229 408.251H584.936C584.714 412.508 583.273 416.477 580.613 420.157C577.996 423.794 574.559 426.743 570.302 429.004C566.045 431.222 561.366 432.33 556.267 432.33C550.857 432.33 546.134 431.377 542.098 429.47C538.107 427.563 534.781 424.947 532.12 421.621C529.504 418.295 527.531 414.481 526.2 410.18C524.914 405.834 524.271 401.244 524.271 396.41V393.617C524.271 388.783 524.914 384.215 526.2 379.914C527.531 375.568 529.504 371.732 532.12 368.406C534.781 365.08 538.107 362.464 542.098 360.557C546.134 358.65 550.857 357.697 556.267 357.697C561.899 357.697 566.821 358.85 571.034 361.156C575.247 363.417 578.55 366.521 580.945 370.468C583.384 374.371 584.714 378.805 584.936 383.772H573.229C573.007 380.801 572.165 378.118 570.701 375.723C569.282 373.328 567.331 371.422 564.848 370.002C562.409 368.539 559.548 367.807 556.267 367.807C552.497 367.807 549.327 368.561 546.755 370.069C544.227 371.532 542.209 373.528 540.701 376.056C539.238 378.539 538.174 381.311 537.509 384.37C536.888 387.386 536.577 390.468 536.577 393.617V396.41C536.577 399.559 536.888 402.663 537.509 405.723C538.129 408.783 539.171 411.554 540.635 414.038C542.143 416.521 544.16 418.517 546.688 420.024C549.26 421.488 552.453 422.22 556.267 422.22ZM592.788 395.812V394.282C592.788 389.093 593.542 384.282 595.05 379.847C596.557 375.368 598.73 371.488 601.569 368.206C604.407 364.881 607.843 362.309 611.879 360.49C615.914 358.628 620.438 357.697 625.449 357.697C630.504 357.697 635.05 358.628 639.085 360.49C643.165 362.309 646.624 364.881 649.462 368.206C652.344 371.488 654.539 375.368 656.047 379.847C657.555 384.282 658.309 389.093 658.309 394.282V395.812C658.309 401 657.555 405.812 656.047 410.246C654.539 414.681 652.344 418.561 649.462 421.887C646.624 425.169 643.187 427.741 639.152 429.603C635.16 431.421 630.637 432.33 625.582 432.33C620.526 432.33 615.981 431.421 611.945 429.603C607.91 427.741 604.451 425.169 601.569 421.887C598.73 418.561 596.557 414.681 595.05 410.246C593.542 405.812 592.788 401 592.788 395.812ZM605.094 394.282V395.812C605.094 399.404 605.515 402.796 606.358 405.989C607.2 409.138 608.464 411.931 610.149 414.37C611.879 416.809 614.03 418.738 616.602 420.157C619.174 421.532 622.167 422.22 625.582 422.22C628.952 422.22 631.901 421.532 634.429 420.157C637.001 418.738 639.129 416.809 640.814 414.37C642.5 411.931 643.763 409.138 644.606 405.989C645.493 402.796 645.936 399.404 645.936 395.812V394.282C645.936 390.734 645.493 387.386 644.606 384.237C643.763 381.045 642.477 378.229 640.748 375.79C639.063 373.306 636.934 371.355 634.362 369.936C631.834 368.517 628.863 367.807 625.449 367.807C622.078 367.807 619.107 368.517 616.535 369.936C614.007 371.355 611.879 373.306 610.149 375.79C608.464 378.229 607.2 381.045 606.358 384.237C605.515 387.386 605.094 390.734 605.094 394.282ZM683.322 374.393V431H671.017V359.027H682.657L683.322 374.393ZM680.396 392.286L675.274 392.087C675.318 387.164 676.05 382.619 677.469 378.45C678.888 374.238 680.883 370.579 683.456 367.475C686.028 364.371 689.087 361.976 692.635 360.291C696.227 358.561 700.196 357.697 704.542 357.697C708.09 357.697 711.282 358.184 714.121 359.16C716.959 360.091 719.376 361.599 721.371 363.683C723.411 365.767 724.963 368.473 726.027 371.798C727.092 375.08 727.624 379.093 727.624 383.838V431H715.251V383.705C715.251 379.936 714.697 376.92 713.588 374.659C712.48 372.353 710.861 370.69 708.733 369.67C706.604 368.606 703.988 368.073 700.883 368.073C697.824 368.073 695.03 368.716 692.502 370.002C690.019 371.289 687.868 373.062 686.05 375.324C684.276 377.586 682.879 380.18 681.859 383.107C680.883 385.989 680.396 389.049 680.396 392.286ZM773.724 359.027V368.473H734.811V359.027H773.724ZM747.981 341.533H760.287V413.173C760.287 415.612 760.664 417.452 761.418 418.694C762.172 419.936 763.147 420.756 764.345 421.155C765.542 421.554 766.828 421.754 768.203 421.754C769.223 421.754 770.287 421.665 771.396 421.488C772.549 421.266 773.413 421.089 773.99 420.956L774.056 431C773.081 431.31 771.795 431.599 770.198 431.865C768.646 432.175 766.762 432.33 764.544 432.33C761.529 432.33 758.757 431.732 756.229 430.534C753.702 429.337 751.684 427.341 750.176 424.548C748.713 421.71 747.981 417.896 747.981 413.107V341.533ZM827.873 418.694V381.643C827.873 378.805 827.296 376.344 826.143 374.26C825.035 372.131 823.349 370.49 821.088 369.337C818.826 368.184 816.032 367.608 812.706 367.608C809.602 367.608 806.875 368.14 804.525 369.204C802.219 370.269 800.4 371.665 799.07 373.395C797.784 375.124 797.141 376.987 797.141 378.982H784.835C784.835 376.41 785.5 373.861 786.831 371.333C788.161 368.805 790.068 366.521 792.551 364.481C795.079 362.397 798.095 360.756 801.598 359.559C805.145 358.317 809.092 357.697 813.438 357.697C818.671 357.697 823.283 358.583 827.274 360.357C831.309 362.131 834.458 364.814 836.72 368.406C839.026 371.954 840.179 376.41 840.179 381.776V415.302C840.179 417.696 840.378 420.246 840.777 422.951C841.221 425.656 841.864 427.984 842.706 429.936V431H829.868C829.247 429.581 828.76 427.696 828.405 425.346C828.05 422.951 827.873 420.734 827.873 418.694ZM830.001 387.364L830.134 396.011H817.695C814.192 396.011 811.066 396.299 808.316 396.876C805.567 397.408 803.261 398.229 801.398 399.337C799.536 400.446 798.117 401.843 797.141 403.528C796.165 405.169 795.678 407.098 795.678 409.315C795.678 411.577 796.188 413.639 797.208 415.501C798.228 417.364 799.757 418.849 801.797 419.958C803.882 421.022 806.431 421.554 809.447 421.554C813.216 421.554 816.542 420.756 819.425 419.16C822.307 417.563 824.591 415.612 826.276 413.306C828.006 411 828.937 408.761 829.07 406.588L834.325 412.508C834.015 414.37 833.172 416.432 831.797 418.694C830.423 420.956 828.582 423.129 826.276 425.213C824.015 427.253 821.309 428.96 818.161 430.335C815.057 431.665 811.553 432.33 807.651 432.33C802.773 432.33 798.494 431.377 794.813 429.47C791.177 427.563 788.338 425.013 786.299 421.82C784.303 418.583 783.305 414.969 783.305 410.978C783.305 407.12 784.059 403.727 785.567 400.801C787.075 397.829 789.248 395.368 792.086 393.417C794.924 391.421 798.338 389.914 802.33 388.894C806.321 387.874 810.777 387.364 815.7 387.364H830.001ZM885.613 422.22C888.54 422.22 891.245 421.621 893.729 420.424C896.212 419.226 898.252 417.585 899.848 415.501C901.445 413.373 902.354 410.956 902.576 408.251H914.283C914.061 412.508 912.62 416.477 909.959 420.157C907.343 423.794 903.906 426.743 899.649 429.004C895.392 431.222 890.713 432.33 885.613 432.33C880.203 432.33 875.48 431.377 871.445 429.47C867.454 427.563 864.128 424.947 861.467 421.621C858.851 418.295 856.877 414.481 855.547 410.18C854.261 405.834 853.618 401.244 853.618 396.41V393.617C853.618 388.783 854.261 384.215 855.547 379.914C856.877 375.568 858.851 371.732 861.467 368.406C864.128 365.08 867.454 362.464 871.445 360.557C875.48 358.65 880.203 357.697 885.613 357.697C891.245 357.697 896.168 358.85 900.381 361.156C904.593 363.417 907.897 366.521 910.292 370.468C912.731 374.371 914.061 378.805 914.283 383.772H902.576C902.354 380.801 901.511 378.118 900.048 375.723C898.629 373.328 896.678 371.422 894.194 370.002C891.755 368.539 888.895 367.807 885.613 367.807C881.844 367.807 878.673 368.561 876.101 370.069C873.574 371.532 871.556 373.528 870.048 376.056C868.585 378.539 867.52 381.311 866.855 384.37C866.234 387.386 865.924 390.468 865.924 393.617V396.41C865.924 399.559 866.234 402.663 866.855 405.723C867.476 408.783 868.518 411.554 869.982 414.038C871.489 416.521 873.507 418.517 876.035 420.024C878.607 421.488 881.8 422.22 885.613 422.22ZM955.527 359.027V368.473H916.614V359.027H955.527ZM929.784 341.533H942.09V413.173C942.09 415.612 942.467 417.452 943.221 418.694C943.975 419.936 944.951 420.756 946.148 421.155C947.345 421.554 948.631 421.754 950.006 421.754C951.026 421.754 952.09 421.665 953.199 421.488C954.352 421.266 955.217 421.089 955.793 420.956L955.86 431C954.884 431.31 953.598 431.599 952.002 431.865C950.449 432.175 948.565 432.33 946.348 432.33C943.332 432.33 940.56 431.732 938.033 430.534C935.505 429.337 933.487 427.341 931.979 424.548C930.516 421.71 929.784 417.896 929.784 413.107V341.533ZM1027.11 422.22C1030.03 422.22 1032.74 421.621 1035.22 420.424C1037.7 419.226 1039.74 417.585 1041.34 415.501C1042.94 413.373 1043.85 410.956 1044.07 408.251H1055.78C1055.55 412.508 1054.11 416.477 1051.45 420.157C1048.84 423.794 1045.4 426.743 1041.14 429.004C1036.88 431.222 1032.21 432.33 1027.11 432.33C1021.7 432.33 1016.97 431.377 1012.94 429.47C1008.95 427.563 1005.62 424.947 1002.96 421.621C1000.34 418.295 998.37 414.481 997.04 410.18C995.754 405.834 995.111 401.244 995.111 396.41V393.617C995.111 388.783 995.754 384.215 997.04 379.914C998.37 375.568 1000.34 371.732 1002.96 368.406C1005.62 365.08 1008.95 362.464 1012.94 360.557C1016.97 358.65 1021.7 357.697 1027.11 357.697C1032.74 357.697 1037.66 358.85 1041.87 361.156C1046.09 363.417 1049.39 366.521 1051.78 370.468C1054.22 374.371 1055.55 378.805 1055.78 383.772H1044.07C1043.85 380.801 1043 378.118 1041.54 375.723C1040.12 373.328 1038.17 371.422 1035.69 370.002C1033.25 368.539 1030.39 367.807 1027.11 367.807C1023.34 367.807 1020.17 368.561 1017.59 370.069C1015.07 371.532 1013.05 373.528 1011.54 376.056C1010.08 378.539 1009.01 381.311 1008.35 384.37C1007.73 387.386 1007.42 390.468 1007.42 393.617V396.41C1007.42 399.559 1007.73 402.663 1008.35 405.723C1008.97 408.783 1010.01 411.554 1011.47 414.038C1012.98 416.521 1015 418.517 1017.53 420.024C1020.1 421.488 1023.29 422.22 1027.11 422.22ZM1096.75 432.33C1091.74 432.33 1087.2 431.488 1083.12 429.803C1079.08 428.073 1075.6 425.656 1072.67 422.552C1069.79 419.448 1067.57 415.767 1066.02 411.51C1064.47 407.253 1063.69 402.597 1063.69 397.541V394.747C1063.69 388.894 1064.56 383.683 1066.29 379.116C1068.02 374.504 1070.37 370.601 1073.34 367.408C1076.31 364.215 1079.68 361.799 1083.45 360.158C1087.22 358.517 1091.12 357.697 1095.16 357.697C1100.3 357.697 1104.74 358.583 1108.46 360.357C1112.23 362.131 1115.31 364.614 1117.71 367.807C1120.1 370.956 1121.88 374.681 1123.03 378.982C1124.18 383.24 1124.76 387.896 1124.76 392.951V398.472H1071.01V388.428H1112.45V387.497C1112.27 384.304 1111.61 381.2 1110.46 378.184C1109.35 375.169 1107.57 372.685 1105.14 370.734C1102.7 368.783 1099.37 367.807 1095.16 367.807C1092.36 367.807 1089.79 368.406 1087.44 369.603C1085.09 370.756 1083.07 372.486 1081.39 374.792C1079.7 377.098 1078.39 379.914 1077.46 383.24C1076.53 386.566 1076.07 390.402 1076.07 394.747V397.541C1076.07 400.956 1076.53 404.171 1077.46 407.186C1078.44 410.158 1079.84 412.774 1081.65 415.036C1083.52 417.297 1085.76 419.071 1088.37 420.357C1091.03 421.643 1094.05 422.286 1097.42 422.286C1101.77 422.286 1105.45 421.399 1108.46 419.625C1111.48 417.851 1114.12 415.479 1116.38 412.508L1123.83 418.428C1122.27 420.778 1120.3 423.018 1117.91 425.146C1115.51 427.275 1112.56 429.004 1109.06 430.335C1105.6 431.665 1101.5 432.33 1096.75 432.33ZM1148.71 374.393V431H1136.4V359.027H1148.04L1148.71 374.393ZM1145.78 392.286L1140.66 392.087C1140.7 387.164 1141.43 382.619 1142.85 378.45C1144.27 374.238 1146.27 370.579 1148.84 367.475C1151.41 364.371 1154.47 361.976 1158.02 360.291C1161.61 358.561 1165.58 357.697 1169.93 357.697C1173.47 357.697 1176.67 358.184 1179.51 359.16C1182.34 360.091 1184.76 361.599 1186.76 363.683C1188.8 365.767 1190.35 368.473 1191.41 371.798C1192.48 375.08 1193.01 379.093 1193.01 383.838V431H1180.64V383.705C1180.64 379.936 1180.08 376.92 1178.97 374.659C1177.86 372.353 1176.25 370.69 1174.12 369.67C1171.99 368.606 1169.37 368.073 1166.27 368.073C1163.21 368.073 1160.41 368.716 1157.89 370.002C1155.4 371.289 1153.25 373.062 1151.43 375.324C1149.66 377.586 1148.26 380.18 1147.24 383.107C1146.27 385.989 1145.78 389.049 1145.78 392.286ZM1239.11 359.027V368.473H1200.2V359.027H1239.11ZM1213.37 341.533H1225.67V413.173C1225.67 415.612 1226.05 417.452 1226.8 418.694C1227.56 419.936 1228.53 420.756 1229.73 421.155C1230.93 421.554 1232.21 421.754 1233.59 421.754C1234.61 421.754 1235.67 421.665 1236.78 421.488C1237.93 421.266 1238.8 421.089 1239.38 420.956L1239.44 431C1238.47 431.31 1237.18 431.599 1235.58 431.865C1234.03 432.175 1232.15 432.33 1229.93 432.33C1226.91 432.33 1224.14 431.732 1221.61 430.534C1219.09 429.337 1217.07 427.341 1215.56 424.548C1214.1 421.71 1213.37 417.896 1213.37 413.107V341.533ZM1280.69 432.33C1275.67 432.33 1271.13 431.488 1267.05 429.803C1263.01 428.073 1259.53 425.656 1256.61 422.552C1253.72 419.448 1251.51 415.767 1249.95 411.51C1248.4 407.253 1247.63 402.597 1247.63 397.541V394.747C1247.63 388.894 1248.49 383.683 1250.22 379.116C1251.95 374.504 1254.3 370.601 1257.27 367.408C1260.24 364.215 1263.61 361.799 1267.38 360.158C1271.15 358.517 1275.05 357.697 1279.09 357.697C1284.23 357.697 1288.67 358.583 1292.39 360.357C1296.16 362.131 1299.24 364.614 1301.64 367.807C1304.03 370.956 1305.81 374.681 1306.96 378.982C1308.11 383.24 1308.69 387.896 1308.69 392.951V398.472H1254.94V388.428H1296.38V387.497C1296.21 384.304 1295.54 381.2 1294.39 378.184C1293.28 375.169 1291.51 372.685 1289.07 370.734C1286.63 368.783 1283.3 367.807 1279.09 367.807C1276.3 367.807 1273.72 368.406 1271.37 369.603C1269.02 370.756 1267.01 372.486 1265.32 374.792C1263.63 377.098 1262.33 379.914 1261.4 383.24C1260.46 386.566 1260 390.402 1260 394.747V397.541C1260 400.956 1260.46 404.171 1261.4 407.186C1262.37 410.158 1263.77 412.774 1265.59 415.036C1267.45 417.297 1269.69 419.071 1272.3 420.357C1274.97 421.643 1277.98 422.286 1281.35 422.286C1285.7 422.286 1289.38 421.399 1292.39 419.625C1295.41 417.851 1298.05 415.479 1300.31 412.508L1307.76 418.428C1306.21 420.778 1304.23 423.018 1301.84 425.146C1299.44 427.275 1296.49 429.004 1292.99 430.335C1289.53 431.665 1285.43 432.33 1280.69 432.33ZM1332.64 370.335V431H1320.33V359.027H1332.31L1332.64 370.335ZM1355.12 358.628L1355.06 370.069C1354.04 369.847 1353.06 369.714 1352.13 369.67C1351.24 369.581 1350.22 369.537 1349.07 369.537C1346.23 369.537 1343.73 369.98 1341.55 370.867C1339.38 371.754 1337.54 372.996 1336.03 374.592C1334.52 376.189 1333.33 378.096 1332.44 380.313C1331.6 382.486 1331.04 384.88 1330.78 387.497L1327.32 389.492C1327.32 385.147 1327.74 381.067 1328.58 377.253C1329.47 373.439 1330.82 370.069 1332.64 367.142C1334.46 364.171 1336.76 361.865 1339.56 360.224C1342.4 358.539 1345.77 357.697 1349.67 357.697C1350.56 357.697 1351.58 357.807 1352.73 358.029C1353.88 358.207 1354.68 358.406 1355.12 358.628ZM1436.75 411.909C1436.75 410.135 1436.35 408.495 1435.55 406.987C1434.8 405.435 1433.22 404.038 1430.83 402.796C1428.48 401.51 1424.93 400.401 1420.18 399.47C1416.19 398.628 1412.58 397.63 1409.34 396.477C1406.15 395.324 1403.42 393.927 1401.16 392.286C1398.94 390.645 1397.23 388.716 1396.04 386.499C1394.84 384.282 1394.24 381.688 1394.24 378.716C1394.24 375.878 1394.86 373.195 1396.1 370.668C1397.39 368.14 1399.19 365.901 1401.49 363.949C1403.84 361.998 1406.66 360.468 1409.94 359.36C1413.22 358.251 1416.88 357.697 1420.91 357.697C1426.68 357.697 1431.6 358.717 1435.68 360.756C1439.76 362.796 1442.89 365.524 1445.06 368.938C1447.23 372.308 1448.32 376.056 1448.32 380.18H1436.01C1436.01 378.184 1435.42 376.255 1434.22 374.393C1433.07 372.486 1431.36 370.912 1429.1 369.67C1426.88 368.428 1424.15 367.807 1420.91 367.807C1417.5 367.807 1414.73 368.34 1412.6 369.404C1410.52 370.424 1408.99 371.732 1408.01 373.328C1407.08 374.925 1406.61 376.61 1406.61 378.384C1406.61 379.714 1406.84 380.912 1407.28 381.976C1407.77 382.996 1408.61 383.949 1409.81 384.836C1411 385.679 1412.69 386.477 1414.86 387.231C1417.03 387.985 1419.81 388.739 1423.18 389.492C1429.07 390.823 1433.93 392.419 1437.74 394.282C1441.56 396.144 1444.4 398.428 1446.26 401.133C1448.12 403.838 1449.05 407.12 1449.05 410.978C1449.05 414.126 1448.39 417.009 1447.06 419.625C1445.77 422.242 1443.89 424.503 1441.4 426.41C1438.96 428.273 1436.04 429.736 1432.62 430.8C1429.25 431.82 1425.46 432.33 1421.25 432.33C1414.91 432.33 1409.54 431.2 1405.15 428.938C1400.76 426.676 1397.43 423.749 1395.17 420.157C1392.91 416.565 1391.78 412.774 1391.78 408.783H1404.15C1404.33 412.153 1405.31 414.836 1407.08 416.832C1408.85 418.783 1411.03 420.18 1413.6 421.022C1416.17 421.82 1418.72 422.22 1421.25 422.22C1424.62 422.22 1427.43 421.776 1429.7 420.889C1432 420.002 1433.75 418.783 1434.95 417.231C1436.15 415.679 1436.75 413.905 1436.75 411.909ZM1459.23 395.812V394.282C1459.23 389.093 1459.99 384.282 1461.49 379.847C1463 375.368 1465.17 371.488 1468.01 368.206C1470.85 364.881 1474.29 362.309 1478.32 360.49C1482.36 358.628 1486.88 357.697 1491.89 357.697C1496.95 357.697 1501.49 358.628 1505.53 360.49C1509.61 362.309 1513.07 364.881 1515.91 368.206C1518.79 371.488 1520.98 375.368 1522.49 379.847C1524 384.282 1524.75 389.093 1524.75 394.282V395.812C1524.75 401 1524 405.812 1522.49 410.246C1520.98 414.681 1518.79 418.561 1515.91 421.887C1513.07 425.169 1509.63 427.741 1505.6 429.603C1501.6 431.421 1497.08 432.33 1492.03 432.33C1486.97 432.33 1482.42 431.421 1478.39 429.603C1474.35 427.741 1470.9 425.169 1468.01 421.887C1465.17 418.561 1463 414.681 1461.49 410.246C1459.99 405.812 1459.23 401 1459.23 395.812ZM1471.54 394.282V395.812C1471.54 399.404 1471.96 402.796 1472.8 405.989C1473.64 409.138 1474.91 411.931 1476.59 414.37C1478.32 416.809 1480.47 418.738 1483.05 420.157C1485.62 421.532 1488.61 422.22 1492.03 422.22C1495.4 422.22 1498.35 421.532 1500.87 420.157C1503.44 418.738 1505.57 416.809 1507.26 414.37C1508.94 411.931 1510.21 409.138 1511.05 405.989C1511.94 402.796 1512.38 399.404 1512.38 395.812V394.282C1512.38 390.734 1511.94 387.386 1511.05 384.237C1510.21 381.045 1508.92 378.229 1507.19 375.79C1505.51 373.306 1503.38 371.355 1500.81 369.936C1498.28 368.517 1495.31 367.807 1491.89 367.807C1488.52 367.807 1485.55 368.517 1482.98 369.936C1480.45 371.355 1478.32 373.306 1476.59 375.79C1474.91 378.229 1473.64 381.045 1472.8 384.237C1471.96 387.386 1471.54 390.734 1471.54 394.282ZM1555.82 431H1543.51V351.444C1543.51 346.255 1544.45 341.887 1546.31 338.34C1548.21 334.748 1550.94 332.043 1554.49 330.224C1558.04 328.362 1562.25 327.431 1567.13 327.431C1568.55 327.431 1569.97 327.519 1571.39 327.697C1572.85 327.874 1574.27 328.14 1575.64 328.495L1574.98 338.539C1574.05 338.317 1572.98 338.162 1571.78 338.074C1570.63 337.985 1569.48 337.941 1568.33 337.941C1565.71 337.941 1563.45 338.473 1561.54 339.537C1559.68 340.557 1558.26 342.065 1557.28 344.06C1556.31 346.056 1555.82 348.517 1555.82 351.444V431ZM1571.12 359.027V368.473H1532.14V359.027H1571.12ZM1612.23 359.027V368.473H1573.32V359.027H1612.23ZM1586.49 341.533H1598.79V413.173C1598.79 415.612 1599.17 417.452 1599.92 418.694C1600.68 419.936 1601.65 420.756 1602.85 421.155C1604.05 421.554 1605.33 421.754 1606.71 421.754C1607.73 421.754 1608.79 421.665 1609.9 421.488C1611.05 421.266 1611.92 421.089 1612.5 420.956L1612.56 431C1611.59 431.31 1610.3 431.599 1608.7 431.865C1607.15 432.175 1605.27 432.33 1603.05 432.33C1600.04 432.33 1597.26 431.732 1594.74 430.534C1592.21 429.337 1590.19 427.341 1588.68 424.548C1587.22 421.71 1586.49 417.896 1586.49 413.107V341.533ZM1642.17 418.228L1660.66 359.027H1668.77L1667.18 370.801L1648.35 431H1640.44L1642.17 418.228ZM1629.73 359.027L1645.49 418.894L1646.62 431H1638.31L1617.42 359.027H1629.73ZM1686.47 418.428L1701.5 359.027H1713.74L1692.85 431H1684.6L1686.47 418.428ZM1670.57 359.027L1688.66 417.231L1690.72 431H1682.88L1663.52 370.668L1661.92 359.027H1670.57ZM1766.09 418.694V381.643C1766.09 378.805 1765.52 376.344 1764.36 374.26C1763.25 372.131 1761.57 370.49 1759.31 369.337C1757.05 368.184 1754.25 367.608 1750.93 367.608C1747.82 367.608 1745.1 368.14 1742.74 369.204C1740.44 370.269 1738.62 371.665 1737.29 373.395C1736 375.124 1735.36 376.987 1735.36 378.982H1723.06C1723.06 376.41 1723.72 373.861 1725.05 371.333C1726.38 368.805 1728.29 366.521 1730.77 364.481C1733.3 362.397 1736.31 360.756 1739.82 359.559C1743.37 358.317 1747.31 357.697 1751.66 357.697C1756.89 357.697 1761.5 358.583 1765.49 360.357C1769.53 362.131 1772.68 364.814 1774.94 368.406C1777.25 371.954 1778.4 376.41 1778.4 381.776V415.302C1778.4 417.696 1778.6 420.246 1779 422.951C1779.44 425.656 1780.08 427.984 1780.93 429.936V431H1768.09C1767.47 429.581 1766.98 427.696 1766.63 425.346C1766.27 422.951 1766.09 420.734 1766.09 418.694ZM1768.22 387.364L1768.35 396.011H1755.92C1752.41 396.011 1749.29 396.299 1746.54 396.876C1743.79 397.408 1741.48 398.229 1739.62 399.337C1737.76 400.446 1736.34 401.843 1735.36 403.528C1734.39 405.169 1733.9 407.098 1733.9 409.315C1733.9 411.577 1734.41 413.639 1735.43 415.501C1736.45 417.364 1737.98 418.849 1740.02 419.958C1742.1 421.022 1744.65 421.554 1747.67 421.554C1751.44 421.554 1754.76 420.756 1757.64 419.16C1760.53 417.563 1762.81 415.612 1764.5 413.306C1766.23 411 1767.16 408.761 1767.29 406.588L1772.55 412.508C1772.23 414.37 1771.39 416.432 1770.02 418.694C1768.64 420.956 1766.8 423.129 1764.5 425.213C1762.23 427.253 1759.53 428.96 1756.38 430.335C1753.28 431.665 1749.77 432.33 1745.87 432.33C1740.99 432.33 1736.71 431.377 1733.03 429.47C1729.4 427.563 1726.56 425.013 1724.52 421.82C1722.52 418.583 1721.53 414.969 1721.53 410.978C1721.53 407.12 1722.28 403.727 1723.79 400.801C1725.29 397.829 1727.47 395.368 1730.31 393.417C1733.14 391.421 1736.56 389.914 1740.55 388.894C1744.54 387.874 1749 387.364 1753.92 387.364H1768.22ZM1807.34 370.335V431H1795.03V359.027H1807L1807.34 370.335ZM1829.82 358.628L1829.75 370.069C1828.73 369.847 1827.76 369.714 1826.83 369.67C1825.94 369.581 1824.92 369.537 1823.77 369.537C1820.93 369.537 1818.42 369.98 1816.25 370.867C1814.08 371.754 1812.24 372.996 1810.73 374.592C1809.22 376.189 1808.02 378.096 1807.14 380.313C1806.29 382.486 1805.74 384.88 1805.47 387.497L1802.02 389.492C1802.02 385.147 1802.44 381.067 1803.28 377.253C1804.17 373.439 1805.52 370.069 1807.34 367.142C1809.16 364.171 1811.46 361.865 1814.25 360.224C1817.09 358.539 1820.46 357.697 1824.37 357.697C1825.25 357.697 1826.27 357.807 1827.43 358.029C1828.58 358.207 1829.38 358.406 1829.82 358.628ZM1867.01 432.33C1862 432.33 1857.45 431.488 1853.37 429.803C1849.34 428.073 1845.85 425.656 1842.93 422.552C1840.04 419.448 1837.83 415.767 1836.28 411.51C1834.72 407.253 1833.95 402.597 1833.95 397.541V394.747C1833.95 388.894 1834.81 383.683 1836.54 379.116C1838.27 374.504 1840.62 370.601 1843.59 367.408C1846.56 364.215 1849.93 361.799 1853.7 360.158C1857.47 358.517 1861.37 357.697 1865.41 357.697C1870.55 357.697 1874.99 358.583 1878.71 360.357C1882.48 362.131 1885.57 364.614 1887.96 367.807C1890.35 370.956 1892.13 374.681 1893.28 378.982C1894.43 383.24 1895.01 387.896 1895.01 392.951V398.472H1841.26V388.428H1882.71V387.497C1882.53 384.304 1881.86 381.2 1880.71 378.184C1879.6 375.169 1877.83 372.685 1875.39 370.734C1872.95 368.783 1869.62 367.807 1865.41 367.807C1862.62 367.807 1860.04 368.406 1857.69 369.603C1855.34 370.756 1853.33 372.486 1851.64 374.792C1849.96 377.098 1848.65 379.914 1847.72 383.24C1846.79 386.566 1846.32 390.402 1846.32 394.747V397.541C1846.32 400.956 1846.79 404.171 1847.72 407.186C1848.69 410.158 1850.09 412.774 1851.91 415.036C1853.77 417.297 1856.01 419.071 1858.63 420.357C1861.29 421.643 1864.3 422.286 1867.67 422.286C1872.02 422.286 1875.7 421.399 1878.71 419.625C1881.73 417.851 1884.37 415.479 1886.63 412.508L1894.08 418.428C1892.53 420.778 1890.55 423.018 1888.16 425.146C1885.77 427.275 1882.82 429.004 1879.31 430.335C1875.85 431.665 1871.75 432.33 1867.01 432.33Z" fill="#8D9192"/>
<defs>
<clipPath id="clip0_6783_18091">
<rect width="1900" height="304" fill="white"/>
</clipPath>
</defs>
</svg>
